<svg xmlns="http://www.w3.org/2000/svg" xmlns:xlink="http://www.w3.org/1999/xlink" width="500" zoomAndPan="magnify" viewBox="0 0 375 374.999991" height="500" preserveAspectRatio="xMidYMid meet" version="1.0"><defs><g/><clipPath id="ef64f9f15a"><rect x="0" width="185" y="0" height="331"/></clipPath><clipPath id="82821f6626"><rect x="0" width="174" y="0" height="334"/></clipPath><clipPath id="ceef018477"><rect x="0" width="159" y="0" height="30"/></clipPath></defs><rect x="-37.5" width="450" fill="#ffffff" y="-37.499999" height="449.999989" fill-opacity="1"/><rect x="-37.5" width="450" fill="#000000" y="-37.499999" height="449.999989" fill-opacity="1"/><g transform="matrix(1, 0, 0, 1, 29, 23)"><g clip-path="url(#ef64f9f15a)"><g fill="#000000" fill-opacity="1"><g transform="translate(7.332185, 248.01424)"><g><path d="M -4.210938 0 L -4.210938 -48.496094 L 16.847656 -48.496094 L 16.847656 -39.472656 L 7.820312 -39.472656 L 7.820312 -147.777344 L 16.847656 -147.777344 L 16.847656 -138.75 L -4.210938 -138.75 L -4.210938 -196.273438 L 176.296875 -196.273438 L 176.296875 -105.535156 L 104.332031 -105.535156 L 104.332031 -147.777344 L 113.359375 -147.777344 L 113.359375 -138.75 L 84.238281 -138.75 L 84.238281 -147.777344 L 93.261719 -147.777344 L 93.261719 -109.75 L 84.238281 -109.75 L 84.238281 -118.773438 L 114.441406 -118.773438 L 114.441406 -73.285156 L 84.238281 -73.285156 L 84.238281 -82.3125 L 93.261719 -82.3125 L 93.261719 -39.472656 L 84.238281 -39.472656 L 84.238281 -48.496094 L 113.359375 -48.496094 L 113.359375 -39.472656 L 104.332031 -39.472656 L 104.332031 -86.523438 L 176.296875 -86.523438 L 176.296875 9.027344 L -4.210938 9.027344 Z M 13.839844 0 L 4.8125 0 L 4.8125 -9.027344 L 167.269531 -9.027344 L 167.269531 0 L 158.246094 0 L 158.246094 -77.5 L 167.269531 -77.5 L 167.269531 -68.472656 L 113.359375 -68.472656 L 113.359375 -77.5 L 122.386719 -77.5 L 122.386719 -30.445312 L 75.210938 -30.445312 L 75.210938 -91.335938 L 105.417969 -91.335938 L 105.417969 -82.3125 L 96.390625 -82.3125 L 96.390625 -109.75 L 105.417969 -109.75 L 105.417969 -100.722656 L 75.210938 -100.722656 L 75.210938 -156.800781 L 122.386719 -156.800781 L 122.386719 -114.5625 L 113.359375 -114.5625 L 113.359375 -123.589844 L 167.269531 -123.589844 L 167.269531 -114.5625 L 158.246094 -114.5625 L 158.246094 -187.246094 L 167.269531 -187.246094 L 167.269531 -178.222656 L 4.8125 -178.222656 L 4.8125 -187.246094 L 13.839844 -187.246094 L 13.839844 -147.777344 L 4.8125 -147.777344 L 4.8125 -156.800781 L 25.875 -156.800781 L 25.875 -30.445312 L 4.8125 -30.445312 L 4.8125 -39.472656 L 13.839844 -39.472656 Z M 13.839844 0 "/></g></g></g><g fill="#ffffff" fill-opacity="1"><g transform="translate(7.332185, 248.01424)"><g><path d="M 4.8125 0 L 4.8125 -39.46875 L 16.84375 -39.46875 L 16.84375 -147.765625 L 4.8125 -147.765625 L 4.8125 -187.25 L 167.265625 -187.25 L 167.265625 -114.5625 L 113.359375 -114.5625 L 113.359375 -147.765625 L 84.234375 -147.765625 L 84.234375 -109.75 L 105.421875 -109.75 L 105.421875 -82.3125 L 84.234375 -82.3125 L 84.234375 -39.46875 L 113.359375 -39.46875 L 113.359375 -77.5 L 167.265625 -77.5 L 167.265625 0 Z M 4.8125 0 "/></g></g></g></g></g><g transform="matrix(1, 0, 0, 1, 175, 21)"><g clip-path="url(#82821f6626)"><g fill="#000000" fill-opacity="1"><g transform="translate(7.357425, 252.220592)"><g><path d="M -4.25 0 L -4.25 -48.949219 L 17.003906 -48.949219 L 17.003906 -39.839844 L 7.894531 -39.839844 L 7.894531 -149.15625 L 17.003906 -149.15625 L 17.003906 -140.046875 L -4.25 -140.046875 L -4.25 -198.105469 L 116.484375 -198.105469 L 116.484375 -140.046875 L 85.023438 -140.046875 L 85.023438 -149.15625 L 94.132812 -149.15625 L 94.132812 -39.839844 L 85.023438 -39.839844 L 85.023438 -48.949219 L 106.886719 -48.949219 L 106.886719 -39.839844 L 97.777344 -39.839844 L 97.777344 -71.300781 L 164.339844 -71.300781 L 164.339844 9.109375 L -4.25 9.109375 Z M 13.96875 0 L 4.859375 0 L 4.859375 -9.109375 L 155.230469 -9.109375 L 155.230469 0 L 146.121094 0 L 146.121094 -62.1875 L 155.230469 -62.1875 L 155.230469 -53.078125 L 106.886719 -53.078125 L 106.886719 -62.1875 L 115.996094 -62.1875 L 115.996094 -30.730469 L 75.914062 -30.730469 L 75.914062 -158.265625 L 107.375 -158.265625 L 107.375 -149.15625 L 98.261719 -149.15625 L 98.261719 -188.996094 L 107.375 -188.996094 L 107.375 -179.886719 L 4.859375 -179.886719 L 4.859375 -188.996094 L 13.96875 -188.996094 L 13.96875 -149.15625 L 4.859375 -149.15625 L 4.859375 -158.265625 L 26.113281 -158.265625 L 26.113281 -30.730469 L 4.859375 -30.730469 L 4.859375 -39.839844 L 13.96875 -39.839844 Z M 13.96875 0 "/></g></g></g><g fill="#ffffff" fill-opacity="1"><g transform="translate(7.357425, 252.220592)"><g><path d="M 4.859375 0 L 4.859375 -39.84375 L 17 -39.84375 L 17 -149.15625 L 4.859375 -149.15625 L 4.859375 -189 L 107.375 -189 L 107.375 -149.15625 L 85.015625 -149.15625 L 85.015625 -39.84375 L 106.890625 -39.84375 L 106.890625 -62.1875 L 155.234375 -62.1875 L 155.234375 0 Z M 4.859375 0 "/></g></g></g></g></g><g transform="matrix(1, 0, 0, 1, 109, 278)"><g clip-path="url(#ceef018477)"><g fill="#ffffff" fill-opacity="1"><g transform="translate(1.395312, 22.184028)"><g><path d="M 5.015625 -6.734375 L 5.015625 -2.53125 L 12.34375 -2.53125 L 12.34375 0 L 1.984375 0 L 1.984375 -15.328125 L 12.171875 -15.328125 L 12.171875 -12.78125 L 5.015625 -12.78125 L 5.015625 -9.203125 L 11.265625 -9.203125 L 11.265625 -6.734375 Z M 5.015625 -6.734375 "/></g></g></g><g fill="#ffffff" fill-opacity="1"><g transform="translate(16.934677, 22.184028)"><g><path d="M 7.34375 -6.15625 L 0.90625 -6.15625 L 0.90625 -8.71875 L 7.34375 -8.71875 Z M 7.34375 -6.15625 "/></g></g></g><g fill="#ffffff" fill-opacity="1"><g transform="translate(27.568216, 22.184028)"><g><path d="M 5.015625 -15.328125 L 5.015625 -2.53125 L 11.90625 -2.53125 L 11.90625 0 L 1.984375 0 L 1.984375 -15.328125 Z M 5.015625 -15.328125 "/></g></g></g><g fill="#ffffff" fill-opacity="1"><g transform="translate(42.342356, 22.184028)"><g><path d="M 5.015625 -6.734375 L 5.015625 -2.53125 L 12.34375 -2.53125 L 12.34375 0 L 1.984375 0 L 1.984375 -15.328125 L 12.171875 -15.328125 L 12.171875 -12.78125 L 5.015625 -12.78125 L 5.015625 -9.203125 L 11.265625 -9.203125 L 11.265625 -6.734375 Z M 5.015625 -6.734375 "/></g></g></g><g fill="#ffffff" fill-opacity="1"><g transform="translate(57.881721, 22.184028)"><g><path d="M 14.703125 0 L 11.515625 0 L 10.375 -3.53125 L 4.5 -3.53125 L 3.34375 0 L 0.234375 0 L 5.53125 -15.328125 L 9.40625 -15.328125 Z M 7.28125 -12.125 L 5.3125 -6.078125 L 9.53125 -6.078125 L 7.546875 -12.125 Z M 7.28125 -12.125 "/></g></g></g><g fill="#ffffff" fill-opacity="1"><g transform="translate(75.182152, 22.184028)"><g><path d="M 1.984375 0 L 1.984375 -15.328125 L 8.140625 -15.328125 C 9.734375 -15.328125 10.929688 -14.960938 11.734375 -14.234375 C 12.546875 -13.503906 12.953125 -12.492188 12.953125 -11.203125 C 12.953125 -10.273438 12.710938 -9.515625 12.234375 -8.921875 C 11.765625 -8.328125 11.0625 -7.875 10.125 -7.5625 L 10.125 -7.34375 C 10.601562 -7.132812 10.988281 -6.820312 11.28125 -6.40625 C 11.582031 -5.988281 11.867188 -5.378906 12.140625 -4.578125 L 13.671875 0 L 10.5625 0 L 9.0625 -4.578125 C 8.90625 -5.035156 8.726562 -5.390625 8.53125 -5.640625 C 8.34375 -5.898438 8.097656 -6.085938 7.796875 -6.203125 C 7.503906 -6.328125 7.117188 -6.390625 6.640625 -6.390625 L 5.015625 -6.390625 L 5.015625 0 Z M 7.78125 -8.78125 C 9.25 -8.78125 9.984375 -9.46875 9.984375 -10.84375 C 9.984375 -12.226562 9.25 -12.921875 7.78125 -12.921875 L 5.015625 -12.921875 L 5.015625 -8.78125 Z M 7.78125 -8.78125 "/></g></g></g><g fill="#ffffff" fill-opacity="1"><g transform="translate(91.874596, 22.184028)"><g><path d="M 4.921875 0 L 1.984375 0 L 1.984375 -15.328125 L 5.46875 -15.328125 L 11.609375 -5.453125 L 11.890625 -5.5 L 11.890625 -15.328125 L 14.796875 -15.328125 L 14.796875 0 L 11.703125 0 L 5.1875 -10.546875 L 4.921875 -10.5 Z M 4.921875 0 "/></g></g></g><g fill="#ffffff" fill-opacity="1"><g transform="translate(111.040918, 22.184028)"><g><path d="M 5.015625 0 L 1.984375 0 L 1.984375 -15.328125 L 5.015625 -15.328125 Z M 5.015625 0 "/></g></g></g><g fill="#ffffff" fill-opacity="1"><g transform="translate(120.427035, 22.184028)"><g><path d="M 4.921875 0 L 1.984375 0 L 1.984375 -15.328125 L 5.46875 -15.328125 L 11.609375 -5.453125 L 11.890625 -5.5 L 11.890625 -15.328125 L 14.796875 -15.328125 L 14.796875 0 L 11.703125 0 L 5.1875 -10.546875 L 4.921875 -10.5 Z M 4.921875 0 "/></g></g></g><g fill="#ffffff" fill-opacity="1"><g transform="translate(139.593357, 22.184028)"><g><path d="M 7.4375 0.21875 C 6.164062 0.21875 5.0625 -0.0703125 4.125 -0.65625 C 3.1875 -1.238281 2.460938 -2.117188 1.953125 -3.296875 C 1.453125 -4.472656 1.203125 -5.925781 1.203125 -7.65625 C 1.203125 -9.40625 1.503906 -10.867188 2.109375 -12.046875 C 2.722656 -13.222656 3.566406 -14.097656 4.640625 -14.671875 C 5.722656 -15.253906 6.976562 -15.546875 8.40625 -15.546875 C 9.875 -15.546875 11.125 -15.269531 12.15625 -14.71875 C 13.195312 -14.175781 13.925781 -13.367188 14.34375 -12.296875 L 12.125 -10.953125 L 11.859375 -10.96875 C 11.546875 -11.65625 11.101562 -12.15625 10.53125 -12.46875 C 9.96875 -12.78125 9.257812 -12.9375 8.40625 -12.9375 C 7.082031 -12.9375 6.070312 -12.519531 5.375 -11.6875 C 4.675781 -10.851562 4.328125 -9.507812 4.328125 -7.65625 C 4.328125 -5.8125 4.65625 -4.46875 5.3125 -3.625 C 5.96875 -2.789062 6.929688 -2.375 8.203125 -2.375 C 9.304688 -2.375 10.117188 -2.617188 10.640625 -3.109375 C 11.171875 -3.609375 11.4375 -4.347656 11.4375 -5.328125 L 11.4375 -6 L 7.8125 -6 L 7.8125 -8.453125 L 14.4375 -8.453125 L 14.4375 0 L 11.546875 0 L 11.546875 -2.046875 L 11.328125 -2.09375 C 11.015625 -1.351562 10.535156 -0.78125 9.890625 -0.375 C 9.253906 0.0195312 8.4375 0.21875 7.4375 0.21875 Z M 7.4375 0.21875 "/></g></g></g></g></g></svg>