<?xml version="1.0" encoding="UTF-8"?>
<svg version="1.1" xmlns="http://www.w3.org/2000/svg" width="500" height="500">
<path d="M0 0 C165 0 330 0 500 0 C500 165 500 330 500 500 C335 500 170 500 0 500 C0 335 0 170 0 0 Z " fill="#FEFEFE" transform="translate(0,0)"/>
<path d="M0 0 C55.77 0 111.54 0 169 0 C169 21.12 169 42.24 169 64 C174.28 64 179.56 64 185 64 C185 74.89 185 85.78 185 97 C171.8 97 158.6 97 145 97 C145 82.48 145 67.96 145 53 C132.13 53 119.26 53 106 53 C106 69.83 106 86.66 106 104 C115.24 104 124.48 104 134 104 C134 115.88 134 127.76 134 140 C124.76 140 115.52 140 106 140 C106 159.14 106 178.28 106 198 C118.87 198 131.74 198 145 198 C145 181.17 145 164.34 145 147 C158.2 147 171.4 147 185 147 C185 159.54 185 172.08 185 185 C179.72 185 174.44 185 169 185 C169 206.45 169 227.9 169 250 C113.23 250 57.46 250 0 250 C0 232.84 0 215.68 0 198 C5.28 198 10.56 198 16 198 C16 150.15 16 102.3 16 53 C10.72 53 5.44 53 0 53 C0 35.51 0 18.02 0 0 Z " fill="#000000" transform="translate(55,112)"/>
<path d="M0 0 C44.88 0 89.76 0 136 0 C136 17.49 136 34.98 136 53 C126.1 53 116.2 53 106 53 C106 101.18 106 149.36 106 199 C115.57 199 125.14 199 135 199 C135 188.77 135 178.54 135 168 C156.45 168 177.9 168 200 168 C200 195.39 200 222.78 200 251 C134 251 68 251 0 251 C0 233.84 0 216.68 0 199 C5.28 199 10.56 199 16 199 C16 150.49 16 101.98 16 52 C10.72 52 5.44 52 0 52 C0 34.84 0 17.68 0 0 Z " fill="#000000" transform="translate(237,111)"/>
<path d="M0 0 C10.625 -0.25 10.625 -0.25 14 2 C14.1875 5.625 14.1875 5.625 14 9 C13.01 9.33 12.02 9.66 11 10 C11 10.66 11 11.32 11 12 C11.66 12 12.32 12 13 12 C14.49821059 15.37097383 15 17.20442119 15 21 C13.1875 20.9375 13.1875 20.9375 11 20 C10 17.66666667 9 15.33333333 8 13 C6.68 12.67 5.36 12.34 4 12 C4 14.97 4 17.94 4 21 C2.68 21 1.36 21 0 21 C0 14.07 0 7.14 0 0 Z " fill="#0D0D0D" transform="translate(248,380)"/>
<path d="M0 0 C5 1 5 1 7.01953125 3.50390625 C7.61121094 4.51324219 8.20289063 5.52257812 8.8125 6.5625 C9.41707031 7.57441406 10.02164062 8.58632813 10.64453125 9.62890625 C11.09183594 10.41136719 11.53914063 11.19382812 12 12 C12.33 8.04 12.66 4.08 13 0 C14.32 0 15.64 0 17 0 C17 6.93 17 13.86 17 21 C15.35 21 13.7 21 12 21 C8.04 14.07 8.04 14.07 4 7 C3.67 11.62 3.34 16.24 3 21 C2.01 21 1.02 21 0 21 C0 14.07 0 7.14 0 0 Z " fill="#0F0F0F" transform="translate(309,380)"/>
<path d="M0 0 C1.65 0 3.3 0 5 0 C7.93841629 6.87619244 10.180206 13.74839665 12 21 C10.68 21 9.36 21 8 21 C7.67 19.35 7.34 17.7 7 16 C4.03 16 1.06 16 -2 16 C-2.33 17.65 -2.66 19.3 -3 21 C-4.32 21 -5.64 21 -7 21 C-5.180206 13.74839665 -2.93841629 6.87619244 0 0 Z " fill="#0E0E0E" transform="translate(230,380)"/>
<path d="M0 0 C3.77130907 0.25568197 5.11206772 0.57155043 7.6875 3.25 C7.6875 3.91 7.6875 4.57 7.6875 5.25 C6.6975 5.58 5.7075 5.91 4.6875 6.25 C4.3575 5.92 4.0275 5.59 3.6875 5.25 C1.35452567 5.20907063 -0.97955225 5.20758277 -3.3125 5.25 C-4.80547212 8.23594424 -4.43005228 10.95853624 -4.3125 14.25 C-3.9825 14.91 -3.6525 15.57 -3.3125 16.25 C-0.99093403 16.65729228 1.3443787 16.99438677 3.6875 17.25 C4.0175 15.6 4.3475 13.95 4.6875 12.25 C3.0375 12.25 1.3875 12.25 -0.3125 12.25 C-0.3125 11.26 -0.3125 10.27 -0.3125 9.25 C2.6575 9.25 5.6275 9.25 8.6875 9.25 C8.6875 13.21 8.6875 17.17 8.6875 21.25 C7.3675 21.25 6.0475 21.25 4.6875 21.25 C4.3575 20.59 4.0275 19.93 3.6875 19.25 C3.0275 19.91 2.3675 20.57 1.6875 21.25 C-2.35384736 21.17516023 -4.59527384 20.83849326 -7.75 18.25 C-9.86893927 14.1816366 -10.29013125 10.74710377 -9.3125 6.25 C-6.875 3.25 -6.875 3.25 -4.3125 1.25 C-3.3125 0.25 -3.3125 0.25 0 0 Z " fill="#171717" transform="translate(342.3125,379.75)"/>
<path d="M0 0 C5 1 5 1 7.01953125 3.72265625 C7.90705078 5.37587891 7.90705078 5.37587891 8.8125 7.0625 C9.41707031 8.16722656 10.02164062 9.27195312 10.64453125 10.41015625 C11.09183594 11.26480469 11.53914063 12.11945313 12 13 C12.33 8.71 12.66 4.42 13 0 C13.99 0 14.98 0 16 0 C16 6.93 16 13.86 16 21 C14.68 21 13.36 21 12 21 C10.37227202 18.83761684 9.06336197 16.83973003 7.75 14.5 C7.20472656 13.56994141 7.20472656 13.56994141 6.6484375 12.62109375 C5.75239409 11.08838792 4.87444253 9.54513146 4 8 C3.67 12.29 3.34 16.58 3 21 C2.01 21 1.02 21 0 21 C0 14.07 0 7.14 0 0 Z " fill="#040404" transform="translate(271,380)"/>
<path d="M0 0 C4.29 0 8.58 0 13 0 C13 0.99 13 1.98 13 3 C10.03 3 7.06 3 4 3 C4 4.98 4 6.96 4 9 C6.64 9 9.28 9 12 9 C12 9.99 12 10.98 12 12 C9.36 12 6.72 12 4 12 C4 13.98 4 15.96 4 18 C6.97 18 9.94 18 13 18 C13 18.99 13 19.98 13 21 C8.71 21 4.42 21 0 21 C0 14.07 0 7.14 0 0 Z " fill="#020202" transform="translate(150,380)"/>
<path d="M0 0 C4.29 0 8.58 0 13 0 C13 0.99 13 1.98 13 3 C9.7 3 6.4 3 3 3 C3 4.98 3 6.96 3 9 C5.97 9 8.94 9 12 9 C12 9.99 12 10.98 12 12 C9.03 12 6.06 12 3 12 C3 13.98 3 15.96 3 18 C6.3 18 9.6 18 13 18 C13 18.99 13 19.98 13 21 C8.71 21 4.42 21 0 21 C0 14.07 0 7.14 0 0 Z " fill="#020202" transform="translate(205,380)"/>
<path d="M0 0 C1.32 0 2.64 0 4 0 C4 5.61 4 11.22 4 17 C6.97 17 9.94 17 13 17 C13 18.32 13 19.64 13 21 C8.71 21 4.42 21 0 21 C0 14.07 0 7.14 0 0 Z " fill="#1D1D1D" transform="translate(185,380)"/>
<path d="M0 0 C1.32 0 2.64 0 4 0 C4 6.93 4 13.86 4 21 C2.68 21 1.36 21 0 21 C0 14.07 0 7.14 0 0 Z " fill="#101010" transform="translate(296,380)"/>
<path d="M0 0 C1.98 0 3.96 0 6 0 C6.38218767 1.65614657 6.71395102 3.32457024 7 5 C6 6 6 6 2.9375 6.0625 C1.4834375 6.0315625 1.4834375 6.0315625 0 6 C0 4.02 0 2.04 0 0 Z " fill="#E6E6E6" transform="translate(252,383)"/>
<path d="M0 0 C2.76223278 2.76223278 2.57856291 5.20706617 3 9 C1.35 9 -0.3 9 -2 9 C-1.125 2.25 -1.125 2.25 0 0 Z " fill="#D1D1D1" transform="translate(232,384)"/>
<path d="M0 0 C2.31 0 4.62 0 7 0 C7 0.99 7 1.98 7 3 C4.69 3 2.38 3 0 3 C0 2.01 0 1.02 0 0 Z " fill="#000000" transform="translate(170,390)"/>
</svg>
